<?xml version="1.0" encoding="UTF-8" standalone="no"?>
<!-- Created with Inkscape (http://www.inkscape.org/) -->

<svg
   xmlns:dc="http://purl.org/dc/elements/1.1/"
   xmlns:cc="http://creativecommons.org/ns#"
   xmlns:rdf="http://www.w3.org/1999/02/22-rdf-syntax-ns#"
   xmlns:svg="http://www.w3.org/2000/svg"
   xmlns="http://www.w3.org/2000/svg"
   xmlns:sodipodi="http://sodipodi.sourceforge.net/DTD/sodipodi-0.dtd"
   xmlns:inkscape="http://www.inkscape.org/namespaces/inkscape"
   version="1.1"
   id="svg815"
   xml:space="preserve"
   width="384"
   height="746.66669"
   viewBox="0 0 384 746.66669"
   sodipodi:docname="logo_vector.svg"
   inkscape:version="0.92.4 (5da689c313, 2019-01-14)"><metadata
     id="metadata821"><rdf:RDF><cc:Work
         rdf:about=""><dc:format>image/svg+xml</dc:format><dc:type
           rdf:resource="http://purl.org/dc/dcmitype/StillImage" /><dc:title></dc:title></cc:Work></rdf:RDF></metadata><defs
     id="defs819"><clipPath
       clipPathUnits="userSpaceOnUse"
       id="clipPath831"><path
         d="M 0,560 H 288 V 0 H 0 Z"
         id="path829"
         inkscape:connector-curvature="0" /></clipPath></defs><sodipodi:namedview
     pagecolor="#ffffff"
     bordercolor="#666666"
     borderopacity="1"
     objecttolerance="10"
     gridtolerance="10"
     guidetolerance="10"
     inkscape:pageopacity="0"
     inkscape:pageshadow="2"
     inkscape:window-width="3008"
     inkscape:window-height="1880"
     id="namedview817"
     showgrid="false"
     inkscape:zoom="2.1066964"
     inkscape:cx="192"
     inkscape:cy="335.3592"
     inkscape:window-x="-13"
     inkscape:window-y="-13"
     inkscape:window-maximized="1"
     inkscape:current-layer="g823" /><g
     id="g823"
     inkscape:groupmode="layer"
     inkscape:label="logo_vector"
     transform="matrix(1.3333333,0,0,-1.3333333,0,746.66667)"><g
       id="g825"><g
         id="g827"
         clip-path="url(#clipPath831)"><g
           id="g833"
           transform="translate(18.9292,466.1997)"><path
             d="m 0,0 c 73.235,0 146.469,-0.025 219.705,0.086 3.083,0.005 3.695,-0.604 3.688,-3.688 -0.118,-57.327 -0.118,-114.654 0,-171.981 0.007,-3.084 -0.605,-3.693 -3.688,-3.689 -72.035,0.112 -144.069,0.112 -216.103,0 -3.083,-0.004 -3.695,0.605 -3.689,3.689 C 0.031,-117.056 0,-58.528 0,0"
             style="fill:#fefefe;fill-opacity:1;fill-rule:nonzero;stroke:none"
             id="path835"
             inkscape:connector-curvature="0" /></g><g
           id="g837"
           transform="translate(75.7798,401.1006)"><path
             d="m 0,0 c -1.729,16.079 4.954,30.204 13.931,43.183 3.953,5.714 8.727,11.222 14.772,15.338 4.846,3.3 10.361,2.907 15.625,3.749 2.89,0.462 1.6,-1.76 0.741,-2.777 -4.835,-5.73 -7.821,-12.482 -10.265,-19.396 -4.77,-13.5 -4.529,-27.131 -0.257,-40.796 5.564,-17.798 17.487,-30.451 33.291,-39.131 14.818,-8.138 30.757,-11.712 48.011,-7.88 10.089,2.239 19.09,6.248 27.527,11.897 0.939,0.628 1.776,1.26 2.811,0.783 1.481,-0.681 1.654,-2.189 1.312,-3.497 -1.516,-5.786 -2.964,-11.48 -7.434,-16.08 C 128.176,-66.842 113.8,-73.89 97.179,-77.275 83.815,-79.998 71.02,-78.862 57.806,-75.776 43.723,-72.487 32.109,-65.465 22.261,-55.652 7.146,-40.59 -1.507,-22.466 0,0"
             style="fill:#ee4b4a;fill-opacity:1;fill-rule:nonzero;stroke:none"
             id="path839"
             inkscape:connector-curvature="0" /></g><g
           id="g841"
           transform="translate(132.1104,288.8774)"><path
             d="m 0,0 c -19.511,-1.317 -36.888,5.534 -52.913,15.949 -14.415,9.368 -24.995,22.103 -32.134,38.071 -5.457,12.206 -7.538,24.817 -7.215,37.738 0.484,19.277 7.012,36.62 19.424,51.663 3.547,4.299 7.487,8.153 11.401,12.062 0.928,0.927 2.34,2.261 3.427,1.559 1.392,-0.897 0.742,-2.725 0.038,-4.049 -4.153,-7.815 -6.719,-16.111 -7.943,-24.872 -2.372,-16.989 -1.424,-33.468 5.884,-49.385 6.751,-14.706 16.568,-26.9 29.391,-36.452 9.577,-7.135 20.369,-12.185 32.027,-15.418 8.86,-2.456 17.779,-4.163 26.894,-3.441 11.856,0.94 23.74,2.197 34.623,7.724 1.058,0.537 2.23,0.849 3.345,1.273 1.638,0.623 3.722,1.885 4.829,0.061 C 72.161,30.698 69.976,29.116 68.875,28 57.915,16.895 44.972,9.145 30.064,4.246 20.241,1.018 10.394,-0.432 0,0"
             style="fill:#f29796;fill-opacity:1;fill-rule:nonzero;stroke:none"
             id="path843"
             inkscape:connector-curvature="0" /></g><g
           id="g845"
           transform="translate(181.2383,368.2383)"><path
             d="m 0,0 c -12.103,-1.279 -23.482,1.798 -33.11,8.581 -14.621,10.3 -23.896,24.282 -24.754,42.975 -0.77,16.796 5.483,30.539 17.115,42.186 2.635,2.638 10.545,3.39 13.392,1.29 1.953,-1.441 0.921,-3.151 0.178,-4.779 -3.306,-7.247 -5.994,-14.664 -5.484,-22.806 0.91,-14.548 7.158,-26.097 19.166,-34.603 14.842,-10.513 30.725,-10.633 47.284,-5.343 0.568,0.182 1.17,0.282 1.714,0.518 2.097,0.91 3.898,4.081 6.52,1.25 2.193,-2.368 2.597,-9.825 0.79,-11.932 C 37.54,11.191 30.868,6.904 23.511,3.792 16.038,0.631 8.2,-1.017 0,0"
             style="fill:#f29697;fill-opacity:1;fill-rule:nonzero;stroke:none"
             id="path847"
             inkscape:connector-curvature="0" /></g><g
           id="g849"
           transform="translate(192.9531,444.7422)"><path
             d="M 0,0 C 3.516,-2.111 6.721,-4.548 8.705,-8.27 8.426,-8.575 8.123,-8.855 7.812,-9.127 6.528,-12.564 6.251,-16.061 6.814,-19.68 7.67,-25.176 7.368,-30.713 7.09,-36.232 c -0.069,-1.391 0.088,-3.067 -1.529,-3.949 -2.281,0.096 -4.58,-0.35 -6.833,0.283 l 0.001,-0.037 c 0.178,9.064 0.025,18.125 -0.163,27.188 -0.052,2.542 -0.022,4.964 -0.761,7.492 C -2.738,-3.398 -3.248,-0.678 0,0"
             style="fill:#692f46;fill-opacity:1;fill-rule:nonzero;stroke:none"
             id="path851"
             inkscape:connector-curvature="0" /></g><g
           id="g853"
           transform="translate(192.9531,444.7422)"><path
             d="m 0,0 c -1.382,-2.172 -2.488,-4.342 -0.176,-6.626 0.295,-0.292 0.712,-0.813 0.625,-1.088 -2.172,-6.902 0.73,-13.891 -0.38,-20.808 -0.234,-1.46 -0.679,-3.198 -0.136,-4.408 1.245,-2.772 0.006,-4.818 -1.203,-7.005 -1.5,0.209 -3.135,-0.179 -4.408,1.014 -1.847,0.633 -2.382,1.896 -2.035,3.785 2.266,12.376 0.224,24.875 1.005,37.296 0.046,0.731 -0.052,1.549 1.112,1.324 C -3.135,3.279 -1.58,1.619 0,0"
             style="fill:#853647;fill-opacity:1;fill-rule:nonzero;stroke:none"
             id="path855"
             inkscape:connector-curvature="0" /></g><g
           id="g857"
           transform="translate(187.3574,448.2266)"><path
             d="m 0,0 c 0.984,-4.405 0.015,-8.806 -0.085,-13.203 -0.2,-8.847 1.457,-17.782 -1.048,-26.517 -0.399,-1.394 0.655,-1.818 1.051,-2.686 -1.819,-0.097 -3.213,0.775 -4.469,1.96 1.75,4.248 -0.712,8.815 1.049,13.11 0.799,1.948 0.687,4.184 0.284,6.206 -1.574,7.918 0.194,15.999 -1.307,23.905 C -2.5,2.693 -1.479,0.974 0,0"
             style="fill:#913847;fill-opacity:1;fill-rule:nonzero;stroke:none"
             id="path859"
             inkscape:connector-curvature="0" /></g><g
           id="g861"
           transform="translate(180.0439,409.3262)"><path
             d="m 0,0 c -0.582,0.35 -1.165,0.7 -1.748,1.05 -0.45,0.607 -0.615,1.284 -0.509,2.031 0.83,2.228 1.629,4.33 0.3,6.802 -1.062,1.974 0.71,3.989 0.744,6.056 0.087,5.457 -0.447,10.891 -0.553,16.342 -0.06,3.106 -0.797,6.229 1.2,9.039 0.348,0.378 0.779,0.539 1.29,0.491 C 3.802,39.9 3.69,36.575 3.462,33.806 3.064,28.976 3.84,24.251 3.87,19.477 3.891,16.046 4.442,12.593 3.063,9.269 2.506,7.928 2.999,6.663 3.409,5.35 4.359,2.303 3.338,0.381 0,0"
             style="fill:#a63d4a;fill-opacity:1;fill-rule:nonzero;stroke:none"
             id="path863"
             inkscape:connector-curvature="0" /></g><g
           id="g865"
           transform="translate(199.0186,405.0298)"><path
             d="m 0,0 c 0.759,10.218 -1.495,20.431 -0.039,30.66 0.255,1.793 0.237,3.169 1.908,0.724 C 4.48,29.077 4.714,25.933 4.884,22.772 5.11,18.568 4.302,14.431 4.021,10.259 3.73,5.955 3.605,1.846 9.168,0.759 7.796,-0.451 6.082,0.08 4.518,-0.153 2.996,-0.558 1.478,-0.882 0,0"
             style="fill:#562b44;fill-opacity:1;fill-rule:nonzero;stroke:none"
             id="path867"
             inkscape:connector-curvature="0" /></g><g
           id="g869"
           transform="translate(180.0439,409.3262)"><path
             d="m 0,0 c -0.031,0.146 -0.119,0.405 -0.086,0.422 5.362,2.694 2.028,7.768 2.457,11.397 0.977,8.274 0.137,16.777 -0.195,25.178 -0.064,1.591 0.076,3.748 -2.112,4.571 -0.066,1.806 1.038,1.282 2.014,1.012 0.236,-0.302 0.474,-0.603 0.71,-0.905 1.583,-2.803 2.201,-5.64 1.949,-9.011 C 4.399,28.119 4.172,23.506 5.216,18.887 5.885,15.924 6.03,12.674 4.444,9.706 4.049,8.966 3.58,7.644 3.922,7.228 6.728,3.807 3.986,1.251 2.763,-1.545 1.645,-1.383 0.605,-1.079 0,0"
             style="fill:#9a3949;fill-opacity:1;fill-rule:nonzero;stroke:none"
             id="path871"
             inkscape:connector-curvature="0" /></g><g
           id="g873"
           transform="translate(208.1865,405.7891)"><path
             d="m 0,0 c -6.469,0.198 -6.426,0.199 -6.487,6.504 -0.034,3.564 0.331,7.06 0.834,10.592 0.652,4.586 -0.069,9.145 -1.647,13.53 0.259,0.012 0.516,0.032 0.772,0.058 l 0.046,-0.029 c 1.209,-0.581 1.93,-1.711 2.891,-2.57 l -0.052,0.067 c 0.264,-0.703 0.581,-1.385 0.815,-2.099 C -1.769,20.062 -2.04,13.978 -1.74,7.942 -1.582,4.761 -1.262,2.196 1.94,0.834 1.485,0.111 0.779,-0.03 0,0"
             style="fill:#4d2b45;fill-opacity:1;fill-rule:nonzero;stroke:none"
             id="path875"
             inkscape:connector-curvature="0" /></g><g
           id="g877"
           transform="translate(175.3398,412.9756)"><path
             d="m 0,0 c -1.864,1.185 -3.518,2.588 -4.683,4.5 2.591,1.287 3.093,3.544 2.847,6.151 -0.391,4.903 1.586,9.747 -0.367,14.785 -0.912,2.351 2.175,4.68 2.366,7.393 0.49,0.836 0.732,2.093 2.189,1.315 C 4.42,27.477 3.619,20.659 2.715,14.019 2.062,9.221 3.482,4.667 3.042,-0.009 2.025,-0.687 1.013,-0.482 0,0"
             style="fill:#b84349;fill-opacity:1;fill-rule:nonzero;stroke:none"
             id="path879"
             inkscape:connector-curvature="0" /></g><g
           id="g881"
           transform="translate(210.127,406.6235)"><path
             d="m 0,0 c -3.882,-0.425 -5.002,1.229 -4.928,5.134 0.127,6.736 -0.481,13.485 -0.782,20.229 2.39,-0.072 3.285,-1.76 3.976,-3.67 C -1.694,15.32 -1.705,8.94 -0.355,2.676 0.405,2.332 1.054,2.708 1.717,3.007 3.076,3.609 4.432,4.123 5.715,2.858 4.164,1.196 2.12,0.522 0,0"
             style="fill:#422745;fill-opacity:1;fill-rule:nonzero;stroke:none"
             id="path883"
             inkscape:connector-curvature="0" /></g><g
           id="g885"
           transform="translate(174.7012,422.979)"><path
             d="m 0,0 c -0.769,-2.259 1.273,-6.583 -4.043,-5.503 -0.26,0.281 -0.519,0.563 -0.778,0.844 0.282,0.92 -0.528,1.871 0.08,2.785 3.295,3.113 -0.177,6.304 0.013,9.473 0.09,1.499 -0.973,3.081 -0.431,4.75 0.524,1.276 1.318,2.46 1.327,3.913 0.225,1.868 -0.346,3.673 -0.439,5.521 0.023,0.454 0.109,0.892 0.233,1.328 0.485,1.022 0.597,2.408 2.235,2.314 C 0.351,24.588 1.683,22.581 0.59,20.86 -1.936,16.88 -0.8,12.891 -0.558,8.811 -0.384,5.873 -0.799,2.9 0,0"
             style="fill:#c4434a;fill-opacity:1;fill-rule:nonzero;stroke:none"
             id="path887"
             inkscape:connector-curvature="0" /></g><g
           id="g889"
           transform="translate(165.5293,426.2871)"><path
             d="M 0,0 C -2.506,6.714 -2.483,13.408 0.166,20.079 1.118,19.323 2.372,18.989 3.134,17.958 3.256,17.541 3.296,17.117 3.267,16.685 3.065,15.151 3.116,13.614 3.195,12.074 3.076,8.796 3.513,5.5 2.847,2.25 2.36,0.923 1.038,0.642 0,0"
             style="fill:#da4d50;fill-opacity:1;fill-rule:nonzero;stroke:none"
             id="path891"
             inkscape:connector-curvature="0" /></g><g
           id="g893"
           transform="translate(165.5293,426.2871)"><path
             d="M 0,0 C 0.094,1.328 0.641,1.91 1.973,1.197 3.785,2.981 2.676,5.037 2.539,7.016 2.438,8.479 2.101,10.284 4.674,9.298 5.617,5.831 5.298,2.14 7.247,-1.206 8.481,-3.324 6.598,-4.962 4.673,-6.023 3.013,-6.566 2.919,-4.623 1.843,-4.24 0.779,-3.022 0.213,-1.587 0,0"
             style="fill:#ce484e;fill-opacity:1;fill-rule:nonzero;stroke:none"
             id="path895"
             inkscape:connector-curvature="0" /></g><g
           id="g897"
           transform="translate(215.8418,409.4819)"><path
             d="m 0,0 c -1.501,0.135 -2.916,-0.132 -4.221,-0.908 -0.789,4.566 -1.586,9.133 0.644,13.559 0.421,0.313 0.827,0.294 1.218,-0.056 0.447,-0.738 1.151,-1.373 0.941,-2.372 0.152,-0.38 0.444,-0.743 0.139,-1.176 0.59,-0.036 0.23,0.71 0.662,0.805 C 3.277,5.189 3.458,2.308 0,0"
             style="fill:#262343;fill-opacity:1;fill-rule:nonzero;stroke:none"
             id="path899"
             inkscape:connector-curvature="0" /></g><g
           id="g901"
           transform="translate(168.4004,443.6934)"><path
             d="M 0,0 C -0.604,1.192 -3.67,-0.106 -2.705,2.673 -1.854,4.771 -1.523,7.099 0.033,8.885 3.999,7.681 3.616,4.84 2.701,1.799 L 2.699,1.796 C 1.793,1.207 1.638,-0.511 0,0"
             style="fill:#d44a50;fill-opacity:1;fill-rule:nonzero;stroke:none"
             id="path903"
             inkscape:connector-curvature="0" /></g><g
           id="g905"
           transform="translate(177.4004,447.29)"><path
             d="m 0,0 c -0.723,-0.389 -0.879,-1.06 -0.898,-1.8 -2.186,0.741 -3.294,2.293 -2.636,4.508 0.55,1.849 0.152,2.817 -1.684,3.236 -1.01,0.234 -2.05,0.398 -2.774,1.252 0.047,1.029 0.747,1.502 1.582,1.862 C -3.638,9.823 -1.956,7.593 0.198,6.656 0.937,6.062 1.368,5.277 1.619,4.377 1.665,2.703 1.111,1.248 0,0"
             style="fill:#bb424d;fill-opacity:1;fill-rule:nonzero;stroke:none"
             id="path907"
             inkscape:connector-curvature="0" /></g><g
           id="g909"
           transform="translate(169.4082,454.4858)"><path
             d="m 0,0 c 1.164,0.002 2.329,0.005 3.493,0.007 1.515,-2.358 0.808,-4.4 -0.897,-6.3 C 2.562,-7.283 2.753,-8.347 1.693,-8.994 2.25,-6.087 0.919,-3.891 -0.974,-1.907 -0.649,-1.271 -0.324,-0.636 0,0"
             style="fill:#c8474a;fill-opacity:1;fill-rule:nonzero;stroke:none"
             id="path911"
             inkscape:connector-curvature="0" /></g><g
           id="g913"
           transform="translate(199.0186,405.0298)"><path
             d="M 0,0 C 1.507,-0.051 3.014,-0.101 4.519,-0.152 0.569,-1.44 -3.382,-1.382 -7.337,-0.185 -4.892,-0.124 -2.446,-0.062 0,0"
             style="fill:#853647;fill-opacity:1;fill-rule:nonzero;stroke:none"
             id="path915"
             inkscape:connector-curvature="0" /></g><g
           id="g917"
           transform="translate(177.3975,453.5659)"><path
             d="M 0,0 C -2.122,0.958 -4.026,2.418 -6.407,2.782 -2.889,4.333 -0.945,1.444 1.502,-0.025 0.993,-0.504 0.493,-0.458 0,0"
             style="fill:#bb5f66;fill-opacity:1;fill-rule:nonzero;stroke:none"
             id="path919"
             inkscape:connector-curvature="0" /></g><g
           id="g921"
           transform="translate(213.4824,422.0771)"><path
             d="m 0,0 c -0.319,0.005 -0.639,0.01 -0.958,0.014 -2.074,0.518 -2.718,2.432 -3.821,3.902 -0.309,0.562 -0.44,1.158 -0.339,1.796 0.11,0.416 0.36,0.709 0.77,0.857 C -2.33,4.756 -0.978,2.502 0,0"
             style="fill:#3c2c48;fill-opacity:1;fill-rule:nonzero;stroke:none"
             id="path923"
             inkscape:connector-curvature="0" /></g><g
           id="g925"
           transform="translate(208.0234,428.3872)"><path
             d="m 0,0 c -0.868,1.534 -2.067,2.736 -3.606,3.6 0.043,0.651 0.085,1.302 0.127,1.954 C -1.743,3.967 0.273,2.624 1.111,0.259 1.035,0.099 0.936,-0.045 0.812,-0.172 0.492,-0.349 0.224,-0.281 0,0"
             style="fill:#53314c;fill-opacity:1;fill-rule:nonzero;stroke:none"
             id="path927"
             inkscape:connector-curvature="0" /></g><g
           id="g929"
           transform="translate(167.3721,422.0474)"><path
             d="M 0,0 C 1.46,0.225 1.883,-1.195 2.83,-1.783 3.046,-2.485 3.708,-3.26 2.508,-3.727 1.229,-2.783 0.036,-1.78 0,0"
             style="fill:#b84349;fill-opacity:1;fill-rule:nonzero;stroke:none"
             id="path931"
             inkscape:connector-curvature="0" /></g><g
           id="g933"
           transform="translate(177.3975,453.5659)"><path
             d="M 0,0 C 0.501,-0.008 1.002,-0.017 1.502,-0.025 2.576,-0.57 3.65,-1.116 4.725,-1.661 3.945,-1.781 3.149,-1.871 2.711,-2.672 L 2.706,-2.675 C 1.674,-3.239 1.416,-2.264 0.915,-1.774 0.61,-1.183 0.305,-0.591 0,0"
             style="fill:#a63d4a;fill-opacity:1;fill-rule:nonzero;stroke:none"
             id="path935"
             inkscape:connector-curvature="0" /></g><g
           id="g937"
           transform="translate(175.3398,412.9756)"><path
             d="M 0,0 C 0.987,0.035 1.976,0.069 2.963,0.104 3.214,-0.094 3.299,-0.293 3.218,-0.494 3.137,-0.696 3.055,-0.797 2.972,-0.797 2.967,-1.398 2.961,-1.999 2.956,-2.599 1.597,-2.159 0.737,-1.148 0,0"
             style="fill:#ae4755;fill-opacity:1;fill-rule:nonzero;stroke:none"
             id="path939"
             inkscape:connector-curvature="0" /></g><g
           id="g941"
           transform="translate(215.2246,419.3335)"><path
             d="M 0,0 C 0.181,-0.926 0.361,-1.852 0.611,-3.134 -1.185,-2.169 -0.834,-0.842 -0.801,0.371 -0.484,0.354 -0.218,0.231 0,0"
             style="fill:#201a32;fill-opacity:1;fill-rule:nonzero;stroke:none"
             id="path943"
             inkscape:connector-curvature="0" /></g><g
           id="g945"
           transform="translate(204.5957,433.8745)"><path
             d="M 0,0 C -1.417,0.346 -2.222,1.382 -2.892,2.569 -1.266,2.458 -0.443,1.442 0,0"
             style="fill:#53314c;fill-opacity:1;fill-rule:nonzero;stroke:none"
             id="path947"
             inkscape:connector-curvature="0" /></g><g
           id="g949"
           transform="translate(178.3115,412.1782)"><path
             d="m 0,0 c -0.003,0.301 -0.006,0.601 -0.009,0.901 -2.683,5.851 -1.924,11.89 -0.878,17.907 0.948,5.451 0.521,10.871 -0.024,16.304 0.305,1.5 0.608,3.001 0.912,4.502 C 0.598,39.313 1.194,39.013 1.792,38.712 -0.073,32.649 1.563,26.517 1.499,20.421 1.46,16.635 2.741,12.786 0.659,9.167 0.252,8.46 0.024,7.692 0.662,7.139 3.801,4.416 1.803,2.229 0,0"
             style="fill:#ad3d47;fill-opacity:1;fill-rule:nonzero;stroke:none"
             id="path951"
             inkscape:connector-curvature="0" /></g><g
           id="g953"
           transform="translate(172.0039,448.1924)"><path
             d="M 0,0 C 0.3,2.101 0.599,4.201 0.897,6.301 2.758,5.082 5.187,4.326 2.648,1.251 1.492,-0.15 3.558,-1.495 4.498,-2.702 4.573,-3.932 4.369,-5.12 3.653,-6.125 2.095,-8.312 1.804,-9.99 3.179,-12.894 4.936,-16.606 1.953,-21.009 2.697,-25.213 1.039,-18.664 -0.503,-12.098 2.22,-5.459 3.297,-2.834 2.202,-1.224 0,0"
             style="fill:#bd424a;fill-opacity:1;fill-rule:nonzero;stroke:none"
             id="path955"
             inkscape:connector-curvature="0" /></g><g
           id="g957"
           transform="translate(208.9229,426.583)"><path
             d="M 0,0 C 1.841,-0.984 2.366,-3.022 3.602,-4.492 3.301,-8.998 3,-13.503 2.698,-18.009 2.31,-18.731 1.638,-18.883 0.899,-18.902 -0.183,-12.639 -0.943,-6.36 0,0"
             style="fill:#322545;fill-opacity:1;fill-rule:nonzero;stroke:none"
             id="path959"
             inkscape:connector-curvature="0" /></g><g
           id="g961"
           transform="translate(208.9229,426.583)"><path
             d="m 0,0 c 0.166,-6.307 1.665,-12.551 0.899,-18.902 -2.645,0.311 -2.517,3.183 -2.272,4.116 1.27,4.859 -0.738,9.492 -0.437,14.226 0.058,0.9 0.059,1.786 0.911,2.364 0.28,-0.015 0.55,-0.072 0.812,-0.171 C -0.059,1.088 -0.029,0.544 0,0"
             style="fill:#3a2346;fill-opacity:1;fill-rule:nonzero;stroke:none"
             id="path963"
             inkscape:connector-curvature="0" /></g><g
           id="g965"
           transform="translate(170.2031,435.5854)"><path
             d="m 0,0 c -3.726,-1.143 -0.733,-3.503 -0.666,-5.1 0.08,-1.898 0.581,-3.249 -2.035,-3.001 0,3.901 0,7.803 10e-4,11.704 0.59,0.569 1.118,1.224 1.98,1.415 C 0.524,5.267 1.197,4.5 1.796,3.602 1.884,2.059 1.638,0.683 0,0"
             style="fill:#d6424e;fill-opacity:1;fill-rule:nonzero;stroke:none"
             id="path967"
             inkscape:connector-curvature="0" /></g><g
           id="g969"
           transform="translate(171.999,439.187)"><path
             d="M 0,0 C -0.899,0.298 -1.8,0.597 -2.699,0.895 -5.114,1.567 -3.94,3.138 -3.603,4.5 l 0.004,0.006 c 0.936,0.545 1.303,1.944 2.7,1.797 C -0.379,4.233 0.288,2.185 0,0"
             style="fill:#c8474a;fill-opacity:1;fill-rule:nonzero;stroke:none"
             id="path971"
             inkscape:connector-curvature="0" /></g><g
           id="g973"
           transform="translate(168.3965,443.687)"><path
             d="M 0,0 C 0.13,-1.245 -0.411,-2.657 0.903,-3.605 0.515,-4.326 -0.154,-4.483 -0.894,-4.499 -0.68,-2.982 -1.498,-1.261 0,0"
             style="fill:#d44a50;fill-opacity:1;fill-rule:nonzero;stroke:none"
             id="path975"
             inkscape:connector-curvature="0" /></g></g></g></g></svg>